<?xml version="1.0" encoding="UTF-8"?>
<svg width="90px" height="90px" viewBox="0 0 90 90" version="1.1" xmlns="http://www.w3.org/2000/svg" xmlns:xlink="http://www.w3.org/1999/xlink">
    <title>assets/ico/big/wypelnijformularz</title>
    <g id="assets/ico/big/wypelnijformularz" stroke="none" stroke-width="1" fill="none" fill-rule="evenodd">
        <circle id="Oval" fill="#C2E900" cx="45" cy="45" r="45"></circle>
        <g id="form" transform="translate(27.000000, 25.000000)" fill="#000000" fill-rule="nonzero">
            <path d="M11.4758788,38.4375 C11.4758788,39.3005371 10.7721461,40 9.90384063,40 L6.28815278,40 C2.82076465,40 0,37.1963501 0,33.75 L0,6.25 C0,2.80364992 2.82076465,0 6.28815278,0 L25.6156255,0 C29.0827066,0 31.9037783,2.80364992 31.9037783,6.25 L31.9037783,15.546875 C31.9037783,16.4099121 31.1997385,17.109375 30.3317401,17.109375 C29.4634346,17.109375 28.7597019,16.4099121 28.7597019,15.546875 L28.7597019,6.25 C28.7597019,4.5269775 27.349166,3.125 25.6156255,3.125 L6.28815278,3.125 C4.55461218,3.125 3.14407639,4.5269775 3.14407639,6.25 L3.14407639,33.75 C3.14407639,35.4730225 4.55461218,36.875 6.28815278,36.875 L9.90384063,36.875 C10.7721461,36.875 11.4758788,37.5744629 11.4758788,38.4375 Z M25.6153185,10.9375 C25.6153185,10.0744629 24.9115857,9.375 24.0432803,9.375 L7.85128687,9.375 C6.98328842,9.375 6.27924868,10.0744629 6.27924868,10.9375 C6.27924868,11.8005371 6.98328842,12.5 7.85128687,12.5 L24.0432803,12.5 C24.9115857,12.5 25.6153185,11.8005371 25.6153185,10.9375 Z M19.3360698,17.1875 C19.3360698,16.3244629 18.6323371,15.625 17.7640316,15.625 L7.85128687,15.625 C6.98328842,15.625 6.27924868,16.3244629 6.27924868,17.1875 C6.27924868,18.0505371 6.98328842,18.75 7.85128687,18.75 L17.7640316,18.75 C18.6323371,18.75 19.3360698,18.0505371 19.3360698,17.1875 Z M7.85128687,21.875 C6.98328842,21.875 6.27924868,22.5744629 6.27924868,23.4375 C6.27924868,24.3005371 6.98328842,25 7.85128687,25 L14.3841495,25 C15.252455,25 15.9561877,24.3005371 15.9561877,23.4375 C15.9561877,22.5744629 15.252455,21.875 14.3841495,21.875 L7.85128687,21.875 Z M35.2772126,38.8375855 C34.6723463,39.576416 33.7797847,40 32.8282718,40 L17.4769504,40 C16.5202178,40 15.6248929,39.5767212 15.0206407,38.8388062 C14.4127041,38.0963134 14.1765913,37.1316528 14.3727891,36.1923218 C14.8806311,33.7606812 16.2257677,31.5481567 18.1601115,29.9621582 C18.8927059,29.3615723 19.6977614,28.8616944 20.551329,28.4710694 C19.6001231,27.3971558 19.0216622,25.9899902 19.0216622,24.4503784 C19.0216622,21.0900879 21.7718079,18.3566284 25.1526111,18.3566284 C28.5334144,18.3566284 31.2835601,21.0900879 31.2835601,24.4503784 C31.2835601,25.9899902 30.7050991,27.3971558 29.7538932,28.4710694 C30.6074609,28.8616944 31.4125163,29.3612671 32.1451107,29.9621582 C34.0407677,31.5164184 35.3702453,33.6724853 35.9008082,36.0464477 C35.9130898,36.0876465 35.9235291,36.1291504 35.9324332,36.1715698 C36.1295521,37.1163941 35.8906759,38.0880737 35.2772126,38.8375855 L35.2772126,38.8375855 Z M22.1657385,24.4503784 C22.1657385,26.0873413 23.5056555,27.4191284 25.1526111,27.4191284 C26.7995668,27.4191284 28.1394837,26.0873413 28.1394837,24.4503784 C28.1394837,22.8134155 26.7995668,21.4816284 25.1526111,21.4816284 C23.5056555,21.4816284 22.1657385,22.8134155 22.1657385,24.4503784 Z M32.8546771,36.8307495 C32.8543701,36.829834 32.8540631,36.8286133 32.8540631,36.8276977 C32.0990549,33.2141113 28.8601036,30.5911255 25.1526111,30.5911255 C21.4451187,30.5911255 18.2058603,33.2141113 17.4511591,36.8276977 C17.4440973,36.862793 17.4683533,36.8740845 17.4683533,36.8743897 C17.4689674,36.8743897 17.4717307,36.875 17.4769504,36.875 L32.8282718,36.875 C32.8291929,36.8740845 32.8503786,36.8582153 32.8546771,36.8307495 L32.8546771,36.8307495 Z" id="Shape"></path>
        </g>
    </g>
</svg>