<?xml version="1.0" encoding="UTF-8"?>
<svg width="90px" height="90px" viewBox="0 0 90 90" version="1.1" xmlns="http://www.w3.org/2000/svg" xmlns:xlink="http://www.w3.org/1999/xlink">
    <title>assets/ico/big/termin</title>
    <g id="assets/ico/big/termin" stroke="none" stroke-width="1" fill="none" fill-rule="evenodd">
        <circle id="Oval" fill="#C2E900" cx="45" cy="45" r="45"></circle>
        <g id="management" transform="translate(25.000000, 25.000000)" fill="#000000" fill-rule="nonzero">
            <path d="M19.601765,21.2417602 C19.733906,21.246643 19.8666573,21.25 20.000019,21.25 C25.8587781,21.25 30.6250089,16.4834595 30.6250089,10.625 C30.6250089,4.76654055 25.8587781,0 20.000019,0 C14.1412599,0 9.37502908,4.76654055 9.37502908,10.625 C9.37502908,14.1021728 11.0541047,17.1948242 13.644129,19.1342163 C11.2713896,19.9151611 9.04482924,21.1300659 7.09597851,22.7328491 C3.52328902,25.6713867 1.03916052,29.770813 0.101356251,34.2752075 C-0.192527767,35.6866455 0.159644789,37.1362305 1.06723666,38.2522583 C1.97055612,39.3630981 3.30966617,40 4.74154958,40 L17.4218964,40 C18.2849327,40 18.984395,39.3005371 18.984395,38.4375 C18.984395,37.5744629 18.2849327,36.875 17.4218964,36.875 L4.74154958,36.875 C4.07474115,36.875 3.67221466,36.5026855 3.49185592,36.2808227 C3.17996661,35.897522 3.05942227,35.3988648 3.16074053,34.9121094 C4.7833586,27.1182251 11.6614039,21.4263916 19.601765,21.2417602 Z M12.5000261,10.625 C12.5000261,6.48956297 15.8645859,3.125 20.0000261,3.125 C24.1354521,3.125 27.5000119,6.48956297 27.5000119,10.625 C27.5000119,14.7012329 24.2312772,18.0279541 20.1776312,18.1228638 C20.1193426,18.1161499 20.0601385,18.1118774 20.0000261,18.1118774 C19.8779488,18.1118774 19.7555734,18.1137085 19.6338084,18.1158447 C15.6677477,17.9241944 12.5000261,14.6377563 12.5000261,10.625 Z M36.875003,24.6875 L36.875003,23.671875 C36.875003,22.8088379 36.1755407,22.109375 35.3125045,22.109375 C34.4494682,22.109375 33.7500059,22.8088379 33.7500059,23.671875 L33.7500059,24.6875 L28.1250113,24.6875 L28.1250113,23.671875 C28.1250113,22.8088379 27.4255491,22.109375 26.5625128,22.109375 C25.6994765,22.109375 25.0000142,22.8088379 25.0000142,23.671875 L25.0000142,24.6875 C23.2769934,24.6875 21.8750172,26.0894775 21.8750172,27.8125 L21.8750172,36.09375 C21.8750172,38.2476806 23.6273349,40 25.7812635,40 L36.0937537,40 C38.2476823,40 40,38.2476806 40,36.09375 L40,27.8125 C40,26.0894775 38.5980238,24.6875 36.875003,24.6875 Z M36.0937537,36.875 L25.7812635,36.875 C25.3503557,36.875 25.0000142,36.5246582 25.0000142,36.09375 L25.0000142,29.7616577 C25.0259541,29.7628784 25.0515889,29.765625 25.0781392,29.765625 L36.796878,29.765625 C36.8231232,29.765625 36.8490631,29.7628784 36.875003,29.7616577 L36.875003,36.09375 C36.875003,36.5246582 36.5243563,36.875 36.0937537,36.875 Z" id="Shape"></path>
        </g>
    </g>
</svg>