<?xml version="1.0" encoding="UTF-8"?>
<svg width="90px" height="90px" viewBox="0 0 90 90" version="1.1" xmlns="http://www.w3.org/2000/svg" xmlns:xlink="http://www.w3.org/1999/xlink">
    <title>assets/ico/big/potwierdzenie</title>
    <g id="assets/ico/big/potwierdzenie" stroke="none" stroke-width="1" fill="none" fill-rule="evenodd">
        <circle id="Oval" fill="#C2E900" cx="45" cy="45" r="45"></circle>
        <g id="time" transform="translate(25.000000, 25.000000)" fill="#000000" fill-rule="nonzero">
            <path d="M39.3508429,32.4899292 L37.8472437,31.4065552 C37.8502955,31.328125 37.8518213,31.25 37.8518213,31.171875 C37.8518213,31.0769653 37.8487696,30.9820556 37.8444971,30.887146 C37.8429713,30.8566284 37.8411403,30.8261109 37.8393092,30.7958984 C37.8374781,30.7659913 37.8365626,30.7357788 37.8344264,30.7058716 L39.385633,29.5211792 C40.0326048,29.0270996 40.1919064,28.1192016 39.7518435,27.4343872 L38.8988782,26.1080933 C38.4963518,25.4818726 37.7074734,25.2267456 37.0141149,25.498352 L35.3322932,26.1581421 C35.1775693,26.0427856 35.0167418,25.9362793 34.8522523,25.8358765 C34.8470643,25.8325195 34.8418763,25.8291626 34.8366883,25.8258056 C34.7649722,25.7824707 34.6923404,25.741272 34.6194034,25.7009888 C34.5983463,25.6893921 34.5775944,25.6774902 34.5568425,25.6661988 C34.4918401,25.6311035 34.4259223,25.5978394 34.3600044,25.5651855 C34.3285713,25.5496216 34.2971382,25.5343628 34.2654,25.5194092 C34.2351876,25.5050659 34.2055856,25.4891968 34.1747629,25.4754639 L33.842732,23.6294555 C33.70876,22.8851319 33.0611778,22.34375 32.3049531,22.34375 L30.8205799,22.34375 C30.041162,22.34375 29.3810676,22.9177856 29.2730354,23.6895752 L29.0227917,25.4769898 C28.5717424,25.6811523 28.1466331,25.9387207 27.7560085,26.2442016 L25.9591357,25.6307984 C25.2322079,25.3823852 24.4326483,25.6994629 24.0731517,26.3781738 L23.3065511,27.8265381 C22.9302698,28.5369873 23.1545737,29.4168091 23.8250441,29.8605347 L25.3588557,30.8758545 C25.3539729,30.9744263 25.3515315,31.0733032 25.3515315,31.171875 C25.3515315,31.267395 25.3545832,31.3626098 25.3588557,31.4578247 C25.3603815,31.4904785 25.3625178,31.5228272 25.364654,31.5554809 C25.3664851,31.5881348 25.3677058,31.6207886 25.3701472,31.6534423 L23.8732618,32.8393555 C23.2748129,33.3135986 23.1066612,34.1510009 23.4759235,34.8193359 L24.2083444,36.1459351 C24.5882878,36.8341064 25.4208063,37.1328735 26.1517014,36.8432617 L27.8500026,36.1703491 C28.0859031,36.3476563 28.3352314,36.5060425 28.5931047,36.6479492 C28.6086686,36.6567993 28.6239274,36.6656494 28.6394914,36.6738891 C28.7078507,36.7108155 28.7771254,36.7459106 28.8467054,36.7800903 C28.8756971,36.7944336 28.9046888,36.8087769 28.9336804,36.8225098 C28.9654186,36.8374634 28.9965466,36.8539429 29.0282848,36.8682861 L29.3606208,38.7142945 C29.4945928,39.4586181 30.142175,40 30.8983997,40 L32.304648,40 C33.0724693,40 33.726155,39.4424438 33.8476148,38.6843872 L34.1350901,36.8869019 C34.6578556,36.6555786 35.1452207,36.3531494 35.5861991,35.9869384 L37.36232,36.5124512 C38.0871116,36.7266845 38.861952,36.3916016 39.2016122,35.7159423 L39.8330201,34.4595337 C40.1781735,33.7734985 39.9737059,32.9388428 39.3508429,32.4899292 L39.3508429,32.4899292 Z M30.6332023,34.1424561 C30.6075676,34.1339111 30.582238,34.1253663 30.5569084,34.1165161 C30.5187615,34.1030884 30.48153,34.0884399 30.4439935,34.0734863 C30.4046259,34.0576172 30.3655635,34.0411377 30.3268062,34.0237427 C30.2938472,34.0090942 30.2611934,33.9941406 30.22915,33.9782715 C30.1995481,33.9639282 30.1702512,33.9486695 30.1412595,33.9334106 C30.1147092,33.9190673 30.088159,33.9044189 30.0619139,33.8894653 C30.0204101,33.8656616 29.9795165,33.8412476 29.9392334,33.815918 C29.9078003,33.7960816 29.876062,33.7759399 29.8452393,33.7548828 C29.8186891,33.7365723 29.7927492,33.7179566 29.7668093,33.6990356 C29.740259,33.6795044 29.714014,33.659668 29.688074,33.6395264 C29.6648807,33.621521 29.6413822,33.6035156 29.6184941,33.5848999 C29.5754643,33.5494995 29.5333501,33.5125733 29.4921514,33.4750366 C29.4726202,33.4570313 29.4536993,33.4384155 29.4344733,33.420105 C29.4054816,33.3920288 29.3774055,33.3636475 29.3493293,33.3346558 C28.9703014,32.9400634 28.6938125,32.4465942 28.5625871,31.8969727 C28.5522112,31.8536377 28.5427507,31.8103027 28.5342058,31.7663574 C28.5308488,31.7486572 28.5277971,31.7306519 28.5244402,31.7126465 C28.517116,31.6705322 28.5107073,31.6287231 28.5052142,31.5866089 C28.5027728,31.5682984 28.5000261,31.5499878 28.4981951,31.5316773 C28.4930072,31.4880371 28.4890398,31.444397 28.4859881,31.4004516 C28.4847674,31.3839722 28.4832416,31.3677978 28.482326,31.3513184 C28.4786639,31.2915039 28.4765277,31.2316895 28.4765277,31.171875 C28.4765277,31.1141968 28.4783588,31.0565186 28.4817156,30.9985352 C28.4820208,30.9915161 28.4829363,30.984497 28.4832416,30.9771728 C28.4865984,30.925293 28.4908709,30.8731079 28.4966692,30.821228 C28.4972796,30.8166504 28.49789,30.812378 28.4985003,30.8081055 C28.504909,30.7531738 28.5128436,30.6982422 28.5219988,30.6436157 C28.5226092,30.640564 28.5232195,30.6378173 28.5235246,30.6350708 C28.5329851,30.5804444 28.5442766,30.5258179 28.5567888,30.4711914 C28.6874039,29.9032593 28.9727428,29.3939209 29.3667243,28.9904785 C29.378321,28.9785766 29.3899176,28.9663696 29.4015143,28.954773 C29.432337,28.9242554 29.4637701,28.894043 29.4958135,28.8647461 C29.5040533,28.8574219 29.5119878,28.8504028 29.5202276,28.8430786 C29.5846196,28.7857055 29.6511478,28.7307739 29.7198122,28.6785889 C29.726221,28.6740113 29.7323245,28.6691284 29.738428,28.6645508 C29.7768801,28.6358642 29.8156373,28.6080933 29.8553102,28.5812378 C29.8556153,28.5809327 29.8562257,28.5806274 29.8565308,28.5803223 C29.9331299,28.5287476 30.0124755,28.4805298 30.0936522,28.4356689 C30.1034178,28.4301758 30.1131834,28.4246827 30.122949,28.4194946 C30.1620115,28.3984375 30.2013791,28.3782959 30.2413571,28.3587647 C30.2547848,28.3520508 30.2685177,28.3462524 30.2819454,28.3398438 C30.3448115,28.3105469 30.4088983,28.2833863 30.4739007,28.2580566 C30.5010613,28.2476806 30.5279167,28.2369995 30.5553825,28.2275391 C30.5862052,28.2162476 30.6176383,28.2055664 30.6490714,28.1954956 C30.6927115,28.1817627 30.7363515,28.1689453 30.7809072,28.1567383 C31.0424425,28.0853272 31.3174055,28.0465698 31.6015238,28.0465698 C31.8917457,28.0465698 32.172507,28.0871582 32.4392303,28.1616211 C32.4828704,28.1738281 32.5262054,28.1866455 32.5689298,28.2006836 C32.5942594,28.2089234 32.6192838,28.2174683 32.6443082,28.2263184 C32.6821499,28.2397461 32.7196865,28.2540894 32.7572231,28.269043 C32.7920131,28.2830811 32.8261927,28.2974243 32.8603724,28.312378 C32.8982141,28.3291626 32.9360559,28.3462524 32.9735925,28.3648681 C33.0004479,28.3779907 33.0273033,28.3917236 33.0538536,28.4057617 C33.0840659,28.421936 33.1142783,28.4384155 33.1438804,28.4555054 C33.1685996,28.4695434 33.1933188,28.4829712 33.2174276,28.4979248 C33.265035,28.5266113 33.3114217,28.5568238 33.3575031,28.5882569 C33.3794757,28.6029053 33.400838,28.6187744 33.4222004,28.6340332 C33.4539386,28.6569214 33.4853716,28.6804199 33.5164995,28.7045288 C33.5357255,28.7197876 33.5552568,28.734436 33.5741777,28.75 C33.619954,28.7875366 33.6651199,28.8259888 33.70876,28.866272 C33.722493,28.8787842 33.7356154,28.8916016 33.7490432,28.9044189 C33.783528,28.937378 33.8177077,28.9709473 33.8509718,29.0057373 C34.2321359,29.4012452 34.5101507,29.8971558 34.6413761,30.4492188 C34.6511417,30.4904175 34.6606021,30.5319214 34.6685366,30.5737305 C34.6721988,30.5932617 34.6755557,30.612793 34.6789126,30.6323242 C34.6859317,30.6726074 34.6923404,30.7131958 34.6978335,30.7540894 C34.7005801,30.7733155 34.7030215,30.7925415 34.7051577,30.8120727 C34.7103457,30.8551025 34.7140078,30.8978272 34.7170596,30.940857 C34.7182803,30.9579468 34.7201113,30.9750366 34.7210269,30.9921265 C34.7243838,31.0519409 34.72652,31.1117554 34.72652,31.1715698 C34.72652,31.279602 34.7210269,31.3879395 34.7100405,31.4953613 C34.7094302,31.499939 34.7085146,31.5045166 34.7082095,31.5090942 C34.7030215,31.557312 34.696918,31.6055298 34.6892887,31.6534423 C34.686542,31.6714477 34.6828799,31.6888428 34.6798282,31.7068481 C34.6740298,31.7404175 34.6685366,31.774292 34.6615177,31.8075562 C34.5498234,32.3452759 34.2992744,32.8323364 33.9495435,33.2305908 C33.9043774,33.2818603 33.858296,33.3322144 33.8100782,33.3804321 C33.7997023,33.3911133 33.7884108,33.4011841 33.7777297,33.4115601 C33.7401931,33.4481812 33.7014358,33.4832764 33.6623733,33.5180664 C33.6416214,33.536377 33.6208695,33.5546875 33.5995073,33.5723877 C33.5561723,33.6087036 33.5119219,33.6437988 33.4667559,33.6776734 C33.4386798,33.6984253 33.4099933,33.7182617 33.3813068,33.7384033 C33.3562825,33.7557984 33.331258,33.772583 33.3059285,33.7890625 C33.2595418,33.8192749 33.2122397,33.8485718 33.1640219,33.8763428 C33.1350302,33.8931274 33.1060386,33.9099121 33.0767417,33.9257813 C33.0453087,33.9425659 33.0135705,33.9587402 32.981527,33.9746094 C32.9473473,33.9913941 32.9125574,34.0075684 32.8777674,34.0231323 C32.8411464,34.0396118 32.8042201,34.0554809 32.7669887,34.0704345 C32.7218228,34.0884399 32.6763516,34.105835 32.6305753,34.1217041 C32.6082975,34.1296387 32.5860197,34.137268 32.5634367,34.1445923 C32.4996551,34.1653442 32.435263,34.1845703 32.3696503,34.2010498 C32.123679,34.2633056 31.8664161,34.2965698 31.6015238,34.2965698 C31.311302,34.2965698 31.0305406,34.2559814 30.7635122,34.1818238 C30.7198721,34.1696167 30.6765372,34.1564941 30.6332023,34.1424561 L30.6332023,34.1424561 Z M21.5624736,38.4375 C21.5624736,39.300232 20.8630116,40 19.9999755,40 C14.65788,40 9.63530313,37.9196167 5.85784197,34.1421509 C2.08038074,30.3643798 0,25.342102 0,20 C0,14.657898 2.08038074,9.63531492 5.85784197,5.85784914 C9.63530313,2.08038328 14.65788,0 19.9999755,0 C25.342071,0 30.3643427,2.08038328 34.1421091,5.85784914 C37.9195703,9.63531492 39.9996459,14.657898 39.9996459,20 C39.9996459,20.3100586 39.9923217,20.6237793 39.9779784,20.9326172 C39.9376953,21.7944336 39.2068002,22.4612427 38.3440693,22.4200439 C37.4819487,22.3797608 36.816056,21.6482544 36.8563392,20.7861328 C36.8685462,20.5258179 36.8746497,20.2612305 36.8746497,20 C36.8746497,10.6951905 29.3047737,3.125 19.9996704,3.125 C10.6948721,3.125 3.12499618,10.6951905 3.12499618,20 C3.12499618,29.3048095 10.6948721,36.875 19.9996704,36.875 C20.8630116,36.875 21.5624736,37.5744629 21.5624736,38.4375 Z M21.5624736,7.5 L21.5624736,20 C21.5624736,20.4144288 21.3976789,20.8117676 21.1047105,21.1047363 L14.9175842,27.2918702 C14.6124088,27.5970459 14.2126291,27.7496338 13.8128493,27.7496338 C13.4127644,27.7496338 13.0129845,27.5970459 12.7078091,27.2918702 C12.0977635,26.6818238 12.0977635,25.6924438 12.7078091,25.0823975 L18.4374774,19.3527222 L18.4374774,7.5 C18.4374774,6.63696289 19.1369395,5.9375 19.9999755,5.9375 C20.8630116,5.9375 21.5624736,6.63696289 21.5624736,7.5 Z" id="Shape"></path>
        </g>
    </g>
</svg>